# Blender v2.93.3 OBJ File: ''
# www.blender.org
mtllib cup.mtl
o Circle
v 0.000000 0.000000 -0.700494
v -0.495324 0.000000 -0.495324
v -0.700494 0.000000 0.000000
v -0.495324 0.000000 0.495324
v 0.000000 0.000000 0.700494
v 0.495324 0.000000 0.495324
v 0.700494 0.000000 -0.000000
v 0.495324 0.000000 -0.495324
v 0.000000 2.000000 -0.817714
v -0.578211 2.000000 -0.578211
v -0.817714 2.000000 0.000000
v -0.578211 2.000000 0.578211
v 0.000000 2.000000 0.817714
v 0.578211 2.000000 0.578211
v 0.578211 2.000000 -0.578211
v 0.897969 0.400000 -0.000000
v 1.000000 0.800000 -0.000000
v 1.000000 1.200000 -0.000000
v 1.000000 1.600000 -0.000000
v 0.707107 1.600000 -0.707107
v 0.707107 1.200000 -0.707107
v 0.707107 0.800000 -0.707107
v 0.634960 0.400000 -0.634960
v 0.000000 0.400000 0.897969
v 0.000000 0.800000 1.000000
v 0.000000 1.200000 1.000000
v 0.000000 1.600000 1.000000
v 0.707107 1.600000 0.707107
v 0.707107 1.200000 0.707107
v 0.707107 0.800000 0.707107
v 0.634960 0.400000 0.634960
v -0.897969 0.400000 0.000000
v -1.000000 0.800000 0.000000
v -1.000000 1.200000 0.000000
v -1.000000 1.600000 0.000000
v -0.707107 1.600000 0.707107
v -0.707107 1.200000 0.707107
v -0.707107 0.800000 0.707107
v -0.634960 0.400000 0.634960
v 0.000000 0.400000 -0.897969
v 0.000000 0.800000 -1.000000
v 0.000000 1.200000 -1.000000
v 0.000000 1.600000 -1.000000
v -0.707107 1.600000 -0.707107
v -0.707107 1.200000 -0.707107
v -0.707107 0.800000 -0.707107
v -0.634960 0.400000 -0.634960
v 0.597909 0.000000 -0.247662
v 0.817714 2.000000 -0.000000
v 0.766464 0.400000 -0.317480
v 0.853553 0.800000 -0.353553
v 0.853553 1.200000 -0.353553
v 0.853553 1.600000 -0.353553
v 0.597909 0.000000 0.247662
v 0.766464 0.400000 0.317480
v 0.853553 0.800000 0.353553
v 0.853553 1.200000 0.353553
v 0.853553 1.600000 0.353553
v 1.194176 0.436361 0.000000
v 1.194176 0.800000 -0.000000
v 1.194176 1.200000 -0.000000
v 1.194176 1.563639 -0.000000
v 1.194176 0.436361 0.185292
v 1.194176 0.800000 0.206345
v 1.194176 1.200000 0.206345
v 1.194176 1.563639 0.206345
v 1.194176 0.436361 -0.185291
v 1.194176 0.800000 -0.206345
v 1.194176 1.200000 -0.206345
v 1.194176 1.563639 -0.206345
v 1.602967 0.644630 0.000000
v 1.326176 0.933398 0.000000
v 1.316477 1.069081 -0.000000
v 1.659919 1.274136 -0.000000
v 1.602967 0.644630 0.185292
v 1.326176 0.933398 0.206345
v 1.316477 1.069080 0.206345
v 1.659919 1.274136 0.206345
v 1.602967 0.644630 -0.185291
v 1.326176 0.933398 -0.206345
v 1.316477 1.069081 -0.206345
v 1.659919 1.274136 -0.206345
v -0.655087 2.000000 -0.655087
v 0.000000 2.000000 -0.926432
v -0.926433 2.000000 0.000000
v -0.655087 2.000000 0.655087
v 0.000000 2.000000 0.926432
v 0.655087 2.000000 0.655087
v 0.790760 2.000000 0.327543
v 0.790760 2.000000 -0.327543
v 0.926432 2.000000 -0.000000
v 0.655087 2.000000 -0.655087
v -0.526191 0.963049 -0.526191
v 0.000000 0.963049 -0.744147
v -0.744147 0.963049 0.000000
v -0.526191 0.963049 0.526191
v 0.000000 0.963049 0.744147
v 0.526191 0.963049 0.526191
v 0.526191 0.963049 -0.526191
v 0.744147 0.963049 -0.000000
v -0.286205 0.201743 -0.286205
v 0.000000 0.201743 -0.404756
v -0.404756 0.201743 0.000000
v -0.286205 0.201743 0.286205
v 0.000000 0.201743 0.404756
v 0.286205 0.201743 0.286205
v 0.286205 0.201743 -0.286205
v 0.404756 0.201743 -0.000000
v 0.923682 0.800000 -0.353553
v 0.854523 0.400000 -0.317480
v 0.923682 0.800000 0.353553
v 0.854523 0.400000 0.317480
v 0.958953 0.400000 -0.000000
v 1.039977 0.800000 -0.000000
v 0.916632 1.600000 -0.353553
v 1.035959 1.600000 -0.000000
v 0.916632 1.200000 0.353553
v 1.035959 1.200000 -0.000000
v 0.916632 1.200000 -0.353553
v 0.916632 1.600000 0.353553
v 1.000000 1.948571 -0.000000
v 0.000000 1.948571 1.000000
v -1.000000 1.948571 0.000000
v 0.000000 1.948571 -1.000000
v 0.707107 1.948571 -0.707107
v 0.707107 1.948571 0.707107
v -0.707107 1.948571 0.707107
v -0.707107 1.948571 -0.707107
v 0.853553 1.948571 -0.353553
v 0.853553 1.948571 0.353553
v 0.744147 1.641937 -0.000000
v 0.526191 1.641937 -0.526191
v 0.526191 1.641937 0.526191
v 0.000000 1.641937 0.744147
v -0.744147 1.641937 0.000000
v -0.526191 1.641937 0.526191
v 0.000000 1.641937 -0.744147
v -0.526191 1.641937 -0.526191
v -0.707107 2.000000 -0.707107
v 0.000000 2.000000 -1.000000
v -1.000000 2.000000 0.000000
v -0.707107 2.000000 0.707107
v 0.000000 2.000000 1.000000
v 0.707107 2.000000 0.707107
v 0.853553 2.000000 0.353553
v 0.853553 2.000000 -0.353553
v 1.000000 2.000000 -0.000000
v 0.707107 2.000000 -0.707107
v -0.526191 2.000000 -0.526191
v 0.000000 2.000000 -0.744147
v -0.744147 2.000000 0.000000
v -0.526191 2.000000 0.526191
v 0.000000 2.000000 0.744147
v 0.526191 2.000000 0.526191
v 0.526191 2.000000 -0.526191
v 0.744147 2.000000 -0.000000
vt 0.000000 0.000000
vt 0.000000 0.000000
vt 0.000000 0.000000
vt 0.000000 0.000000
vt 0.000000 0.000000
vt 0.000000 0.000000
vt 0.000000 0.000000
vt 0.000000 0.000000
vt 0.000000 0.000000
vt 0.000000 0.000000
vt 0.000000 0.000000
vt 0.000000 0.000000
vt 0.000000 0.000000
vt 0.000000 0.000000
vt 0.000000 0.000000
vt 0.000000 0.000000
vt 0.000000 0.000000
vt 0.000000 0.000000
vt 0.000000 0.000000
vt 0.000000 0.000000
vt 0.000000 0.000000
vt 0.000000 0.000000
vt 0.000000 0.000000
vt 0.000000 0.000000
vt 0.000000 0.000000
vt 0.000000 0.000000
vt 0.000000 0.000000
vt 0.000000 0.000000
vt 0.000000 0.000000
vt 0.000000 0.000000
vt 0.000000 0.000000
vt 0.000000 0.000000
vt 0.000000 0.000000
vt 0.000000 0.000000
vt 0.000000 0.000000
vt 0.000000 0.000000
vt 0.000000 0.000000
vt 0.000000 0.000000
vt 0.000000 0.000000
vt 0.000000 0.000000
vt 0.000000 0.000000
vt 0.000000 0.000000
vt 0.000000 0.000000
vt 0.000000 0.000000
vt 0.000000 0.000000
vt 0.000000 0.000000
vt 0.000000 0.000000
vt 0.000000 0.000000
vt 0.000000 0.000000
vt 0.000000 0.000000
vt 0.000000 0.000000
vt 0.000000 0.000000
vt 0.000000 0.000000
vt 0.000000 0.000000
vt 0.000000 0.000000
vt 0.000000 0.000000
vt 0.000000 0.000000
vt 0.000000 0.000000
vt 0.000000 0.000000
vt 0.000000 0.000000
vt 0.000000 0.000000
vt 0.000000 0.000000
vt 0.000000 0.000000
vt 0.000000 0.000000
vt 0.000000 0.000000
vt 0.000000 0.000000
vt 0.000000 0.000000
vt 0.000000 0.000000
vt 0.000000 0.000000
vt 0.000000 0.000000
vt 0.000000 0.000000
vt 0.000000 0.000000
vt 0.000000 0.000000
vt 0.000000 0.000000
vt 0.000000 0.000000
vt 0.000000 0.000000
vt 0.000000 0.000000
vt 0.000000 0.000000
vt 0.000000 0.000000
vt 0.000000 0.000000
vt 0.000000 0.000000
vt 0.000000 0.000000
vt 0.000000 0.000000
vt 0.000000 0.000000
vt 0.000000 0.000000
vt 0.000000 0.000000
vt 0.000000 0.000000
vt 0.000000 0.000000
vt 0.000000 0.000000
vt 0.000000 0.000000
vt 0.000000 0.000000
vt 0.000000 0.000000
vt 0.000000 0.000000
vt 0.000000 0.000000
vt 0.000000 0.000000
vt 0.000000 0.000000
vt 0.000000 0.000000
vt 0.000000 0.000000
vt 0.000000 0.000000
vt 0.000000 0.000000
vt 0.000000 0.000000
vt 0.000000 0.000000
vt 0.000000 0.000000
vt 0.000000 0.000000
vt 0.000000 0.000000
vt 0.000000 0.000000
vt 0.000000 0.000000
vt 0.000000 0.000000
vt 0.000000 0.000000
vt 0.000000 0.000000
vt 0.000000 0.000000
vt 0.000000 0.000000
vt 0.000000 0.000000
vt 0.000000 0.000000
vt 0.000000 0.000000
vt 0.000000 0.000000
vt 0.000000 0.000000
vt 0.000000 0.000000
vt 0.000000 0.000000
vt 0.000000 0.000000
vt 0.000000 0.000000
vt 0.000000 0.000000
vt 0.000000 0.000000
vt 0.000000 0.000000
vt 0.000000 0.000000
vt 0.000000 0.000000
vt 0.000000 0.000000
vt 0.000000 0.000000
vt 0.000000 0.000000
vt 0.000000 0.000000
vt 0.000000 0.000000
vt 0.000000 0.000000
vt 0.000000 0.000000
vt 0.000000 0.000000
vt 0.000000 0.000000
vt 0.000000 0.000000
vt 0.000000 0.000000
vt 0.000000 0.000000
vt 0.000000 0.000000
vt 0.000000 0.000000
vt 0.000000 0.000000
vt 0.000000 0.000000
vt 0.000000 0.000000
vt 0.000000 0.000000
vt 0.000000 0.000000
vt 0.000000 0.000000
vt 0.000000 0.000000
vt 0.000000 0.000000
vt 0.000000 0.000000
vt 0.000000 0.000000
vt 0.000000 0.000000
vt 0.000000 0.000000
vt 0.000000 0.000000
vt 0.000000 0.000000
vt 0.000000 0.000000
vt 0.000000 0.000000
vn -0.9239 0.0000 0.3827
vn -1.0000 0.0000 0.0000
vn -0.7764 -0.6302 0.0000
vn -0.6533 -0.7071 0.2706
vn -0.7071 0.0000 -0.7071
vn 0.0000 0.0000 -1.0000
vn 0.0000 -0.6302 -0.7764
vn -0.5490 -0.6302 -0.5490
vn 0.7071 0.0000 -0.7071
vn 1.0000 0.0000 0.0000
vn 0.7764 -0.6302 0.0000
vn 0.5490 -0.6302 -0.5490
vn 0.7071 0.0000 0.7071
vn 0.0000 0.0000 1.0000
vn 0.0000 -0.6302 0.7764
vn 0.5490 -0.6302 0.5490
vn -0.7071 0.0000 0.7071
vn -0.5490 -0.6302 0.5490
vn -0.9239 0.0000 -0.3827
vn -0.6533 -0.7071 -0.2706
vn 0.6101 0.7923 0.0000
vn 0.4314 0.7923 0.4314
vn 0.6653 0.3388 0.6653
vn 0.9409 0.3388 0.0000
vn 0.7019 0.1209 0.7019
vn 0.9926 0.1209 0.0000
vn 0.0000 0.7923 -0.6101
vn 0.4314 0.7923 -0.4314
vn 0.6653 0.3388 -0.6653
vn 0.0000 0.3388 -0.9409
vn 0.7019 0.1209 -0.7019
vn 0.0000 0.1209 -0.9926
vn -0.4996 0.8411 -0.2069
vn -0.4314 0.7923 -0.4314
vn -0.6653 0.3388 -0.6653
vn -0.6911 0.5054 -0.5167
vn -0.7019 0.1209 -0.7019
vn -0.7657 -0.1167 -0.6325
vn -0.7729 0.2091 -0.5990
vn -0.7729 -0.2091 -0.5990
vn 0.0000 0.7923 0.6101
vn -0.4314 0.7923 0.4314
vn -0.6653 0.3388 0.6653
vn 0.0000 0.3388 0.9409
vn -0.7019 0.1209 0.7019
vn 0.0000 0.1209 0.9926
vn -0.4996 0.8411 0.2069
vn -0.6101 0.7923 0.0000
vn -0.4199 0.9076 0.0000
vn -0.6911 0.5054 0.5167
vn -0.1575 0.7089 -0.6875
vn -0.1852 -0.6162 -0.7655
vn 0.0775 -0.6033 -0.7938
vn -0.3577 0.7496 -0.5569
vn -0.7657 -0.1167 0.6325
vn -0.5943 -0.8042 0.0000
vn -0.5943 0.8042 0.0000
vn -0.7729 0.2091 0.5990
vn 0.0000 1.0000 0.0000
vn -0.1821 0.6566 -0.7319
vn 0.0836 0.6358 -0.7673
vn 0.3983 0.9172 0.0000
vn -0.7729 -0.2091 0.5990
vn -0.1070 -0.9942 0.0000
vn -0.2043 -0.6619 0.7212
vn -0.4241 -0.7177 0.5522
vn -0.3589 -0.9333 0.0000
vn -0.1852 -0.6162 0.7655
vn -0.1575 0.7089 0.6875
vn -0.3577 0.7496 0.5569
vn 0.0775 -0.6033 0.7938
vn 0.5511 0.2584 -0.7934
vn 0.9166 0.3999 0.0000
vn 0.3851 -0.9228 0.0000
vn 0.5321 -0.1751 0.8284
vn 0.9378 -0.3470 0.0000
vn 0.0836 0.6358 0.7673
vn 0.5511 0.2584 0.7934
vn -0.7132 -0.3487 0.6080
vn 0.5321 -0.1751 -0.8284
vn -0.0792 0.9968 0.0000
vn -0.2971 0.9548 0.0000
vn -0.1821 0.6566 0.7319
vn -0.2043 -0.6619 -0.7212
vn -0.4241 -0.7177 -0.5522
vn 0.0000 -1.0000 0.0000
vn -0.6630 0.4558 0.5938
vn -0.8950 -0.4459 0.0000
vn -0.7132 -0.3487 -0.6080
vn -0.6630 0.4558 -0.5938
vn -0.8282 0.5604 0.0000
vn 0.9801 -0.1985 0.0000
vn 0.6930 -0.1985 -0.6930
vn 0.6265 -0.7794 0.0000
vn 0.4429 -0.7794 -0.4429
vn 0.6930 -0.1985 0.6930
vn 0.0000 -0.1985 0.9801
vn -0.9801 -0.1985 0.0000
vn -0.6930 -0.1985 0.6930
vn 0.0000 -0.1985 -0.9801
vn -0.6930 -0.1985 -0.6930
vn -0.4429 -0.7794 -0.4429
vn 0.0000 -0.7794 -0.6265
vn 0.4429 -0.7794 0.4429
vn 0.0000 -0.7794 0.6265
vn -0.4429 -0.7794 0.4429
vn -0.6265 -0.7794 0.0000
vn -0.4203 -0.8042 -0.4203
vn 0.0000 -0.8042 0.5943
vn -0.4203 -0.8042 0.4203
vn 0.0000 -0.8042 -0.5943
vn 0.4203 -0.8042 -0.4203
vn 0.4203 -0.8042 0.4203
vn 0.5943 -0.8042 0.0000
usemtl None
s 1
f 129/1/1 121/2/2 147/3/3 146/4/4
f 126/5/5 122/6/6 143/7/7 144/8/8
f 127/9/9 123/10/10 141/11/11 142/12/12
f 128/13/13 124/14/14 140/15/15 139/16/16
f 124/14/14 125/17/17 148/18/18 140/15/15
f 130/19/19 126/5/5 144/8/8 145/20/20
f 122/6/6 127/9/9 142/12/12 143/7/7
f 123/10/10 128/13/13 139/16/16 141/11/11
f 3/21/21 2/22/22 47/23/23 32/24/24
f 32/24/24 47/23/23 46/25/25 33/26/26
f 33/26/26 46/25/25 45/27/13 34/28/10
f 34/28/10 45/27/13 44/29/13 35/30/10
f 5/31/27 4/32/28 39/33/29 24/34/30
f 24/34/30 39/33/29 38/35/31 25/36/32
f 25/36/32 38/35/31 37/37/9 26/38/6
f 26/38/6 37/37/9 36/39/9 27/40/6
f 54/41/33 6/42/34 31/43/35 55/44/36
f 55/44/36 31/43/35 30/45/37 56/46/38
f 56/46/38 30/45/37 29/47/5 57/48/39
f 57/48/39 29/47/5 28/49/5 58/50/40
f 1/51/41 8/52/42 23/53/43 40/54/44
f 40/54/44 23/53/43 22/55/45 41/56/46
f 41/56/46 22/55/45 21/57/17 42/58/14
f 42/58/14 21/57/17 20/59/17 43/60/14
f 2/22/22 1/51/41 40/54/44 47/23/23
f 47/23/23 40/54/44 41/56/46 46/25/25
f 46/25/25 41/56/46 42/58/14 45/27/13
f 45/27/13 42/58/14 43/60/14 44/29/13
f 4/32/28 3/21/21 32/24/24 39/33/29
f 39/33/29 32/24/24 33/26/26 38/35/31
f 38/35/31 33/26/26 34/28/10 37/37/9
f 37/37/9 34/28/10 35/30/10 36/39/9
f 6/42/34 5/31/27 24/34/30 31/43/35
f 31/43/35 24/34/30 25/36/32 30/45/37
f 30/45/37 25/36/32 26/38/6 29/47/5
f 29/47/5 26/38/6 27/40/6 28/49/5
f 48/61/47 7/62/48 16/63/49 50/64/50
f 112/65/51 111/66/52 64/67/53 63/68/54
f 51/69/55 17/70/56 18/71/57 52/72/58
f 118/73/59 117/74/60 65/75/61 61/76/62
f 21/57/17 52/72/58 53/77/63 20/59/17
f 22/55/45 51/69/55 52/72/58 21/57/17
f 23/53/43 50/64/50 51/69/55 22/55/45
f 8/52/42 48/61/47 50/64/50 23/53/43
f 125/17/17 129/1/1 146/4/4 148/18/18
f 116/78/64 115/79/65 70/80/66 62/81/67
f 17/70/56 56/46/38 57/48/39 18/71/57
f 109/82/68 110/83/69 67/84/70 68/85/71
f 7/62/48 54/41/33 55/44/36 16/63/49
f 121/2/2 130/19/19 145/20/20 147/3/3
f 61/76/62 65/75/61 77/86/72 73/87/73
f 60/88/74 68/85/71 80/89/75 72/90/76
f 70/80/66 69/91/77 81/92/78 82/93/79
f 64/67/53 60/88/74 72/90/76 76/94/80
f 110/83/69 113/95/81 59/96/82 67/84/70
f 115/79/65 119/97/83 69/91/77 70/80/66
f 120/98/84 116/78/64 62/81/67 66/99/85
f 114/100/86 109/82/68 68/85/71 60/88/74
f 113/95/81 112/65/51 63/68/54 59/96/82
f 117/74/60 120/98/84 66/99/85 65/75/61
f 119/97/83 118/73/59 61/76/62 69/91/77
f 111/66/52 114/100/86 60/88/74 64/67/53
f 73/87/73 72/90/76 80/89/75 81/92/78
f 73/87/73 77/86/72 76/94/80 72/90/76
f 68/85/71 67/84/70 79/101/87 80/89/75
f 69/91/77 61/76/62 73/87/73 81/92/78
f 66/99/85 62/81/67 74/102/88 78/103/89
f 65/75/61 66/99/85 78/103/89 77/86/72
f 59/96/82 63/68/54 75/104/90 71/105/91
f 62/81/67 70/80/66 82/93/79 74/102/88
f 67/84/70 59/96/82 71/105/91 79/101/87
f 63/68/54 64/67/53 76/94/80 75/104/90
f 79/101/87 71/105/91 74/102/88 82/93/79
f 81/92/78 80/89/75 79/101/87 82/93/79
f 71/105/91 75/104/90 78/103/89 74/102/88
f 77/86/72 78/103/89 75/104/90 76/94/80
f 2/22/22 3/21/21 4/32/28 5/31/27 6/42/34 54/41/33 7/62/48 48/61/47 8/52/42 1/51/41
f 132/106/9 131/107/10 100/108/92 99/109/93
f 9/110/86 10/111/86 83/112/86 84/113/86
f 10/111/86 11/114/86 85/115/86 83/112/86
f 11/114/86 12/116/86 86/117/86 85/115/86
f 12/116/86 13/118/86 87/119/86 86/117/86
f 13/118/86 14/120/86 88/121/86 87/119/86
f 14/120/86 49/122/86 89/123/86 88/121/86
f 49/122/86 90/124/86 91/125/86
f 15/126/86 9/110/86 84/113/86 92/127/86
f 49/122/86 15/126/86 92/127/86 90/124/86
f 49/122/86 91/125/86 89/123/86
f 99/109/93 100/108/92 108/128/94 107/129/95
f 131/107/10 133/130/13 98/131/96 100/108/92
f 133/130/13 134/132/14 97/133/97 98/131/96
f 136/134/17 135/135/2 95/136/98 96/137/99
f 138/138/5 137/139/6 94/140/100 93/141/101
f 137/139/6 132/106/9 99/109/93 94/140/100
f 134/132/14 136/134/17 96/137/99 97/133/97
f 135/135/2 138/138/5 93/141/101 95/136/98
f 101/142/102 102/143/103 107/129/95 108/128/94 106/144/104 105/145/105 104/146/106 103/147/107
f 98/131/96 97/133/97 105/145/105 106/144/104
f 96/137/99 95/136/98 103/147/107 104/146/106
f 93/141/101 94/140/100 102/143/103 101/142/102
f 100/108/92 98/131/96 106/144/104 108/128/94
f 94/140/100 99/109/93 107/129/95 102/143/103
f 97/133/97 96/137/99 104/146/106 105/145/105
f 95/136/98 93/141/101 101/142/102 103/147/107
f 56/46/38 17/70/56 114/100/86 111/66/52
f 16/63/49 55/44/36 112/65/51 113/95/81
f 17/70/56 51/69/55 109/82/68 114/100/86
f 50/64/50 16/63/49 113/95/81 110/83/69
f 51/69/55 50/64/50 110/83/69 109/82/68
f 55/44/36 56/46/38 111/66/52 112/65/51
f 52/72/58 18/71/57 118/73/59 119/97/83
f 57/48/39 58/50/40 120/98/84 117/74/60
f 58/50/40 19/148/56 116/78/64 120/98/84
f 53/77/63 52/72/58 119/97/83 115/79/65
f 19/148/56 53/77/63 115/79/65 116/78/64
f 18/71/57 57/48/39 117/74/60 118/73/59
f 19/148/56 58/50/40 130/19/19 121/2/2
f 20/59/17 53/77/63 129/1/1 125/17/17
f 35/30/10 44/29/13 128/13/13 123/10/10
f 27/40/6 36/39/9 127/9/9 122/6/6
f 58/50/40 28/49/5 126/5/5 130/19/19
f 43/60/14 20/59/17 125/17/17 124/14/14
f 44/29/13 43/60/14 124/14/14 128/13/13
f 36/39/9 35/30/10 123/10/10 127/9/9
f 28/49/5 27/40/6 122/6/6 126/5/5
f 53/77/63 19/148/56 121/2/2 129/1/1
f 151/149/56 149/150/108 138/138/5 135/135/2
f 153/151/109 152/152/110 136/134/17 134/132/14
f 150/153/111 155/154/112 132/106/9 137/139/6
f 149/150/108 150/153/111 137/139/6 138/138/5
f 152/152/110 151/149/56 135/135/2 136/134/17
f 154/155/113 153/151/109 134/132/14 133/130/13
f 156/156/114 154/155/113 133/130/13 131/107/10
f 155/154/112 156/156/114 131/107/10 132/106/9
f 84/113/86 83/112/86 139/16/16 140/15/15
f 83/112/86 85/115/86 141/11/11 139/16/16
f 85/115/86 86/117/86 142/12/12 141/11/11
f 86/117/86 87/119/86 143/7/7 142/12/12
f 87/119/86 88/121/86 144/8/8 143/7/7
f 88/121/86 89/123/86 145/20/20 144/8/8
f 91/125/86 90/124/86 146/4/4 147/3/3
f 92/127/86 84/113/86 140/15/15 148/18/18
f 90/124/86 92/127/86 148/18/18 146/4/4
f 89/123/86 91/125/86 147/3/3 145/20/20
f 10/111/86 9/110/86 150/153/111 149/150/108
f 11/114/86 10/111/86 149/150/108 151/149/56
f 12/116/86 11/114/86 151/149/56 152/152/110
f 13/118/86 12/116/86 152/152/110 153/151/109
f 14/120/86 13/118/86 153/151/109 154/155/113
f 9/110/86 15/126/86 155/154/112 150/153/111
f 15/126/86 49/122/86 156/156/114 155/154/112
f 49/122/86 14/120/86 154/155/113 156/156/114
